<svg width="14" height="18" viewBox="0 0 14 18" fill="none" xmlns="http://www.w3.org/2000/svg">
<path fill-rule="evenodd" clip-rule="evenodd" d="M7.83395 1.49999C7.83395 1.03975 7.46086 0.666656 7.00062 0.666656C6.54038 0.666656 6.16728 1.03975 6.16728 1.49999V1.97571C3.34052 2.37993 1.16729 4.81018 1.16729 7.74908L1.16728 11.0827C1.16728 11.0827 1.16729 11.0826 1.16728 11.0827C1.1672 11.0843 1.16664 11.0955 1.16302 11.1174C1.15869 11.1436 1.15098 11.1793 1.13827 11.2252C1.1125 11.3183 1.07148 11.4342 1.01418 11.5712C0.899291 11.8459 0.737323 12.1622 0.558193 12.4813C0.221405 13.0812 0.0516422 13.7962 0.179091 14.476C0.313494 15.193 0.774986 15.8182 1.56317 16.1183C2.26726 16.3864 3.20448 16.6316 4.44217 16.7775C4.47162 16.803 4.50644 16.8323 4.54645 16.8643C4.67169 16.9644 4.85062 17.0943 5.07675 17.2235C5.52556 17.48 6.18914 17.75 7.00062 17.75C7.8121 17.75 8.47568 17.48 8.92448 17.2235C9.15062 17.0943 9.32955 16.9644 9.45479 16.8643C9.49479 16.8323 9.52962 16.803 9.55907 16.7775C10.7968 16.6316 11.734 16.3864 12.4381 16.1183C13.2262 15.8182 13.6877 15.193 13.8221 14.476C13.9496 13.7962 13.7798 13.0813 13.443 12.4813C13.2639 12.1622 13.1019 11.8459 12.9871 11.5712C12.9298 11.4342 12.8887 11.3183 12.863 11.2252C12.8503 11.1793 12.8426 11.1436 12.8382 11.1174C12.8346 11.0955 12.834 11.0845 12.834 11.083C12.834 11.0828 12.834 11.083 12.834 11.083L12.834 11.0759V7.74948C12.834 4.81066 10.6608 2.38 7.83395 1.97572V1.49999ZM2.83395 7.74908C2.83395 5.44809 4.69923 3.58332 7.00062 3.58332C9.30192 3.58332 11.1673 5.4484 11.1673 7.74948V11.0833C11.1673 11.4691 11.3118 11.8852 11.4494 12.2143C11.5989 12.5717 11.7948 12.95 11.9897 13.2971C12.1792 13.6347 12.2244 13.9537 12.184 14.1689C12.1506 14.3471 12.0615 14.4783 11.845 14.5608C10.9493 14.9018 9.43722 15.25 7.00062 15.25C4.56401 15.25 3.05196 14.9018 2.15624 14.5608C1.93969 14.4783 1.85063 14.3471 1.81722 14.1689C1.77686 13.9537 1.82205 13.6347 2.01153 13.2971C2.2064 12.95 2.40231 12.5717 2.5518 12.2143C2.68941 11.8852 2.83395 11.4691 2.83395 11.0833V7.74908Z" fill="#344054"/>
</svg>
