<svg width="20" height="22" viewBox="0 0 20 22" fill="none" xmlns="http://www.w3.org/2000/svg">
<path fill-rule="evenodd" clip-rule="evenodd" d="M18.6668 8.90442H0.842773C0.428773 8.90442 0.0927734 8.56842 0.0927734 8.15442C0.0927734 7.74042 0.428773 7.40442 0.842773 7.40442H18.6668C19.0808 7.40442 19.4168 7.74042 19.4168 8.15442C19.4168 8.56842 19.0808 8.90442 18.6668 8.90442Z" fill="#2B71F0"/>
<path fill-rule="evenodd" clip-rule="evenodd" d="M14.2013 12.8097C13.7873 12.8097 13.4473 12.4737 13.4473 12.0597C13.4473 11.6457 13.7783 11.3097 14.1923 11.3097H14.2013C14.6153 11.3097 14.9513 11.6457 14.9513 12.0597C14.9513 12.4737 14.6153 12.8097 14.2013 12.8097Z" fill="#2B71F0"/>
<path fill-rule="evenodd" clip-rule="evenodd" d="M9.76377 12.8097C9.34977 12.8097 9.00977 12.4737 9.00977 12.0597C9.00977 11.6457 9.34077 11.3097 9.75477 11.3097H9.76377C10.1778 11.3097 10.5138 11.6457 10.5138 12.0597C10.5138 12.4737 10.1778 12.8097 9.76377 12.8097Z" fill="#2B71F0"/>
<path fill-rule="evenodd" clip-rule="evenodd" d="M5.31652 12.8097C4.90252 12.8097 4.56152 12.4737 4.56152 12.0597C4.56152 11.6457 4.89352 11.3097 5.30752 11.3097H5.31652C5.73052 11.3097 6.06652 11.6457 6.06652 12.0597C6.06652 12.4737 5.73052 12.8097 5.31652 12.8097Z" fill="#2B71F0"/>
<path fill-rule="evenodd" clip-rule="evenodd" d="M14.2013 16.6964C13.7873 16.6964 13.4473 16.3604 13.4473 15.9464C13.4473 15.5324 13.7783 15.1964 14.1923 15.1964H14.2013C14.6153 15.1964 14.9513 15.5324 14.9513 15.9464C14.9513 16.3604 14.6153 16.6964 14.2013 16.6964Z" fill="#2B71F0"/>
<path fill-rule="evenodd" clip-rule="evenodd" d="M9.76377 16.6964C9.34977 16.6964 9.00977 16.3604 9.00977 15.9464C9.00977 15.5324 9.34077 15.1964 9.75477 15.1964H9.76377C10.1778 15.1964 10.5138 15.5324 10.5138 15.9464C10.5138 16.3604 10.1778 16.6964 9.76377 16.6964Z" fill="#2B71F0"/>
<path fill-rule="evenodd" clip-rule="evenodd" d="M5.31652 16.6964C4.90252 16.6964 4.56152 16.3604 4.56152 15.9464C4.56152 15.5324 4.89352 15.1964 5.30752 15.1964H5.31652C5.73052 15.1964 6.06652 15.5324 6.06652 15.9464C6.06652 16.3604 5.73052 16.6964 5.31652 16.6964Z" fill="#2B71F0"/>
<path fill-rule="evenodd" clip-rule="evenodd" d="M13.7939 4.79112C13.3799 4.79112 13.0439 4.45512 13.0439 4.04112V0.750122C13.0439 0.336122 13.3799 0.00012207 13.7939 0.00012207C14.2079 0.00012207 14.5439 0.336122 14.5439 0.750122V4.04112C14.5439 4.45512 14.2079 4.79112 13.7939 4.79112Z" fill="#2B71F0"/>
<path fill-rule="evenodd" clip-rule="evenodd" d="M5.71484 4.79112C5.30084 4.79112 4.96484 4.45512 4.96484 4.04112V0.750122C4.96484 0.336122 5.30084 0.00012207 5.71484 0.00012207C6.12884 0.00012207 6.46484 0.336122 6.46484 0.750122V4.04112C6.46484 4.45512 6.12884 4.79112 5.71484 4.79112Z" fill="#2B71F0"/>
<mask id="mask0_6042_2010" style="mask-type:luminance" maskUnits="userSpaceOnUse" x="0" y="1" width="20" height="21">
<path fill-rule="evenodd" clip-rule="evenodd" d="M0 1.57922H19.5V21.5001H0V1.57922Z" fill="white"/>
</mask>
<g mask="url(#mask0_6042_2010)">
<path fill-rule="evenodd" clip-rule="evenodd" d="M5.521 3.07922C2.928 3.07922 1.5 4.46222 1.5 6.97322V16.0222C1.5 18.5882 2.928 20.0002 5.521 20.0002H13.979C16.572 20.0002 18 18.6142 18 16.0982V6.97322C18.004 5.73822 17.672 4.77822 17.013 4.11822C16.335 3.43822 15.29 3.07922 13.988 3.07922H5.521ZM13.979 21.5002H5.521C2.116 21.5002 0 19.4012 0 16.0222V6.97322C0 3.64522 2.116 1.57922 5.521 1.57922H13.988C15.697 1.57922 17.11 2.09122 18.075 3.05822C19.012 3.99922 19.505 5.35222 19.5 6.97522V16.0982C19.5 19.4302 17.384 21.5002 13.979 21.5002Z" fill="#2B71F0"/>
</g>
</svg>
