<svg width="24" height="24" viewBox="0 0 24 24" fill="none" xmlns="http://www.w3.org/2000/svg">
<path fill-rule="evenodd" clip-rule="evenodd" d="M15.7161 16.9736H8.49609C8.08209 16.9736 7.74609 16.6376 7.74609 16.2236C7.74609 15.8096 8.08209 15.4736 8.49609 15.4736H15.7161C16.1301 15.4736 16.4661 15.8096 16.4661 16.2236C16.4661 16.6376 16.1301 16.9736 15.7161 16.9736Z" fill="#2B71F0"/>
<path fill-rule="evenodd" clip-rule="evenodd" d="M15.7161 12.787H8.49609C8.08209 12.787 7.74609 12.451 7.74609 12.037C7.74609 11.623 8.08209 11.287 8.49609 11.287H15.7161C16.1301 11.287 16.4661 11.623 16.4661 12.037C16.4661 12.451 16.1301 12.787 15.7161 12.787Z" fill="#2B71F0"/>
<path fill-rule="evenodd" clip-rule="evenodd" d="M11.2501 8.61023H8.49512C8.08112 8.61023 7.74512 8.27423 7.74512 7.86023C7.74512 7.44623 8.08112 7.11023 8.49512 7.11023H11.2501C11.6641 7.11023 12.0001 7.44623 12.0001 7.86023C12.0001 8.27423 11.6641 8.61023 11.2501 8.61023Z" fill="#2B71F0"/>
<mask id="mask0_7_19926" style="mask-type:luminance" maskUnits="userSpaceOnUse" x="3" y="2" width="19" height="20">
<path fill-rule="evenodd" clip-rule="evenodd" d="M3 2.00006H21.1647V21.9099H3V2.00006Z" fill="white"/>
</mask>
<g mask="url(#mask0_7_19926)">
<path fill-rule="evenodd" clip-rule="evenodd" d="M15.9092 3.49982L8.22019 3.50382C5.89219 3.51782 4.50019 4.95782 4.50019 7.35682V16.5528C4.50019 18.9678 5.90519 20.4098 8.25619 20.4098L15.9452 20.4068C18.2732 20.3928 19.6652 18.9508 19.6652 16.5528V7.35682C19.6652 4.94182 18.2612 3.49982 15.9092 3.49982ZM8.257 21.9098C5.113 21.9098 3 19.7568 3 16.5528V7.35682C3 4.12382 5.047 2.02282 8.215 2.00382L15.908 1.99982H15.909C19.053 1.99982 21.165 4.15282 21.165 7.35682V16.5528C21.165 19.7848 19.118 21.8868 15.95 21.9068L8.257 21.9098Z" fill="#2B71F0"/>
</g>
</svg>
